<svg id="visual" viewBox="0 0 960 540" width="960" height="540" xmlns="http://www.w3.org/2000/svg" xmlns:xlink="http://www.w3.org/1999/xlink" version="1.1"><path d="M878 540L882.2 528.8C886.3 517.7 894.7 495.3 895 472.8C895.3 450.3 887.7 427.7 886.2 405.2C884.7 382.7 889.3 360.3 893.2 337.8C897 315.3 900 292.7 901.5 270.2C903 247.7 903 225.3 897.8 202.8C892.7 180.3 882.3 157.7 884.3 135.2C886.3 112.7 900.7 90.3 900.8 67.8C901 45.3 887 22.7 880 11.3L873 0L960 0L960 11.3C960 22.7 960 45.3 960 67.8C960 90.3 960 112.7 960 135.2C960 157.7 960 180.3 960 202.8C960 225.3 960 247.7 960 270.2C960 292.7 960 315.3 960 337.8C960 360.3 960 382.7 960 405.2C960 427.7 960 450.3 960 472.8C960 495.3 960 517.7 960 528.8L960 540Z" fill="#0066FF" stroke-linecap="round" stroke-linejoin="miter"></path></svg>